<?xml version="1.0" encoding="iso-8859-1"?>
<!-- Generator: Adobe Illustrator 24.1.0, SVG Export Plug-In . SVG Version: 6.00 Build 0)  -->
<svg version="1.1" id="Layer_1" xmlns="http://www.w3.org/2000/svg" xmlns:xlink="http://www.w3.org/1999/xlink" x="0px" y="0px"
	 width="1095px" height="1080px" viewBox="0 0 1095 1080" enable-background="new 0 0 1095 1080" xml:space="preserve">
<g>
	<g>
		<path fill="#FFFFFF" d="M847.852,238.771c-80.309-80.069-186.942-124.146-300.335-124.146h-0.636
			c-113.617,0.172-220.369,44.559-300.593,125.023c-80.241,80.464-124.318,187.337-124.163,300.971
			c0.172,113.617,44.576,220.369,125.023,300.593c80.31,80.086,186.942,124.163,300.335,124.163h0.637
			c113.617-0.172,220.369-44.576,300.593-125.041c80.223-80.447,124.318-187.337,124.163-300.954
			C972.703,425.764,928.299,318.994,847.852,238.771z M831.319,822.993C755.723,898.812,655.13,940.636,548.085,940.79
			c-0.207,0.017-0.396,0.017-0.602,0.017c-106.838-0.017-207.311-41.548-282.976-116.989
			c-35.097-34.994-62.899-75.32-82.666-119.191l135.896-56.241c12.37,26.202,29.333,50.34,50.477,71.415
			c47.931,47.811,111.587,74.116,179.268,74.116h0.379c67.836-0.103,131.561-26.598,179.44-74.632
			c21.075-21.144,37.97-45.333,50.271-71.57l136.051,55.862C893.994,747.501,866.312,787.913,831.319,822.993z M314.898,540.327
			c-0.189-128.258,104-232.756,232.258-232.946h0.344c92.387,0,172.404,54.159,209.909,132.438
			c3.527,7.346,6.675,14.916,9.428,22.675c8.551,24.155,13.23,50.116,13.265,77.161c0.103,62.142-24.017,120.585-67.888,164.576
			c-43.871,44.009-102.245,68.284-164.369,68.37h-0.361c-61.987,0-120.309-24.103-164.232-67.888
			c-19.097-19.062-34.477-40.843-45.781-64.499c-3.544-7.381-6.692-14.968-9.411-22.692
			C319.458,593.058,314.95,567.045,314.898,540.327z M786.914,625.006c9.583-27.045,14.555-55.828,14.503-85.385
			C801.211,399.734,687.353,286.082,547.5,286.082h-0.361c-140.025,0.189-253.763,114.271-253.556,254.279
			c0.052,29.54,5.11,58.305,14.744,85.316l-135.879,56.241c-16.86-44.559-25.686-92.266-25.755-141.35
			c-0.155-107.045,41.394-207.759,116.989-283.578c75.595-75.802,176.172-117.643,283.234-117.798h0.602
			c106.839,0,207.311,41.531,282.976,116.989c37.918,37.781,67.32,81.823,87.277,129.806
			c19.957,47.983,30.469,99.905,30.538,153.428c0.069,49.067-8.619,96.808-25.342,141.436L786.914,625.006z"/>
	</g>
	<g>
		<path fill="#FFFFFF" d="M503.472,617.305l-27.886,0.04c-7.791,0.011-13.12-7.838-10.24-15.07l34.502-86.608l-23.895,4.614
			l-32.347,81.22c-3.826,9.606-13.12,15.909-23.46,15.924l-27.025,0.039l0.032,22.07l110.35-0.16L503.472,617.305z"/>
		<path fill="#FFFFFF" d="M675.076,617.056c-10.337,0.015-19.641-6.265-23.493-15.856l-37.921-94.405l44.051-0.064
			c6.147-0.009,11.131,4.972,11.156,22.506l0.016,10.936l22.07-0.032l-0.034-23.547c-0.129-11.586-9.559-20.932-21.172-20.915
			c11.613-0.017,21.016-9.39,21.111-20.977l-0.034-23.547l-22.07,0.032l0.033,22.534c0.009,6.033-4.875,10.931-10.908,10.94
			l-53.079,0.077l-24.123-60.055c-1.177-2.93,0.978-6.122,4.135-6.126l28.72-0.042l-0.032-22.07l-132.42,0.192l0.032,22.07
			l28.72-0.042c3.157-0.005,5.321,3.181,4.152,6.114l-23.949,60.124l-53.079,0.077c-6.033,0.009-10.931-4.875-10.94-10.908
			l-0.033-22.534l-22.07,0.032l0.034,23.342c0.018,11.681,9.501,21.137,21.183,21.12c-11.681,0.017-21.138,9.5-21.121,21.181
			l0.034,23.342l22.07-0.032l-0.033-22.445c-0.009-6.082,4.915-11.02,10.997-11.029l99.337-0.144l0.096,66.21l-47.439,0.069
			l0.032,22.07l116.96-0.169l-0.032-22.07l-47.45,0.069l-0.096-66.21l20.271-0.029l-3.409-22.065l-63.241,0.092l26.388-66.248
			l17.656-0.026l73.693,183.438c2.901,7.224-2.417,15.088-10.197,15.1l-27.897,0.04l0.032,22.07l110.35-0.16l-0.032-22.07
			L675.076,617.056z"/>
		<path fill="#FFFFFF" d="M569.745,661.349c-6.091,0.009-11.042-4.917-11.051-11.008l-0.067-46.468l-22.064,4.258l0.061,42.242
			c0.009,6.091-4.917,11.031-11.008,11.04l-33.116,0.048l0.032,22.07l34.028-0.049c11.682-0.017,21.139-9.501,21.122-21.183
			c0.017,11.682,9.501,21.138,21.183,21.121l34.018-0.049l-0.032-22.07L569.745,661.349z"/>
	</g>
	<g>
		<g>
			<g>
				<path fill="#FFFFFF" d="M257.384,705.395l4.861,7.945c0.86,1.405,1.384,2.898,1.574,4.477c0.186,1.579,0.092,3.118-0.282,4.615
					c-0.378,1.497-1.03,2.895-1.956,4.19c-0.927,1.295-2.075,2.362-3.444,3.199c-1.351,0.828-2.813,1.363-4.382,1.608
					s-3.112,0.197-4.625-0.144c-1.514-0.339-2.932-0.954-4.251-1.841c-1.321-0.885-2.418-2.041-3.288-3.464l-4.862-7.945
					L257.384,705.395z M244.561,720.62l0.754,1.235c0.57,0.931,1.225,1.672,1.964,2.224c0.738,0.549,1.519,0.922,2.337,1.111
					s1.66,0.202,2.525,0.037c0.865-0.166,1.719-0.507,2.557-1.02c0.823-0.502,1.505-1.111,2.051-1.82
					c0.544-0.711,0.917-1.472,1.122-2.287c0.203-0.815,0.227-1.677,0.072-2.587c-0.153-0.909-0.511-1.821-1.069-2.734l-0.754-1.233
					L244.561,720.62z"/>
				<path fill="#FFFFFF" d="M275.04,742.003l-4.333-6.1l-3.3,2.344l4.091,5.759l-4.346,3.088l-4.091-5.761l-3.404,2.418l4.333,6.1
					l-4.346,3.086l-7.977-11.233l19.741-14.02l7.979,11.233L275.04,742.003z"/>
				<path fill="#FFFFFF" d="M286.342,757.709c0.003-0.884-0.106-1.675-0.328-2.376c-0.223-0.701-0.536-1.302-0.941-1.803
					c-0.509-0.632-1.075-1.028-1.7-1.185c-0.622-0.158-1.174-0.042-1.657,0.348c-0.334,0.271-0.529,0.591-0.583,0.966
					c-0.055,0.375-0.032,0.79,0.074,1.242c0.102,0.454,0.26,0.931,0.475,1.431c0.212,0.502,0.413,1.008,0.603,1.516
					c0.758,2.03,0.99,3.773,0.699,5.235c-0.294,1.462-1.156,2.769-2.589,3.926c-0.966,0.78-1.972,1.324-3.016,1.631
					c-1.047,0.307-2.1,0.375-3.162,0.2c-1.062-0.173-2.115-0.59-3.155-1.25c-1.042-0.66-2.026-1.564-2.955-2.713
					c-1.924-2.381-2.997-5.16-3.222-8.335l5.643-1.089c-0.059,1.257,0.044,2.372,0.306,3.343c0.262,0.973,0.675,1.808,1.24,2.508
					c0.647,0.798,1.309,1.247,1.993,1.341c0.682,0.096,1.257-0.044,1.724-0.42c0.282-0.23,0.489-0.477,0.615-0.746
					c0.128-0.267,0.185-0.59,0.173-0.963c-0.015-0.375-0.097-0.81-0.25-1.307c-0.153-0.496-0.354-1.084-0.6-1.764
					c-0.312-0.795-0.593-1.594-0.84-2.398c-0.25-0.803-0.368-1.601-0.349-2.399c0.015-0.798,0.208-1.589,0.583-2.371
					c0.371-0.783,1.025-1.551,1.959-2.305c0.931-0.751,1.902-1.28,2.908-1.584c1.006-0.304,2.006-0.395,2.997-0.274
					c0.991,0.119,1.964,0.464,2.917,1.03c0.951,0.566,1.831,1.347,2.639,2.347c0.753,0.934,1.411,2.011,1.972,3.238
					c0.563,1.223,0.971,2.503,1.223,3.841L286.342,757.709z"/>
				<path fill="#FFFFFF" d="M301.162,765.212l-18.022,16.171l-4.205-4.684l18.024-16.173L301.162,765.212z"/>
				<path fill="#FFFFFF" d="M306.34,785.899l8.913,8.755c-0.901,0.916-1.757,1.712-2.567,2.386
					c-0.811,0.672-1.648,1.216-2.507,1.633c-1.206,0.586-2.426,0.958-3.658,1.112c-1.232,0.155-2.448,0.101-3.648-0.161
					c-1.198-0.262-2.359-0.706-3.486-1.332c-1.124-0.625-2.177-1.418-3.154-2.377c-1.344-1.321-2.352-2.747-3.026-4.276
					c-0.672-1.532-1.01-3.09-1.018-4.671c-0.005-1.583,0.321-3.152,0.981-4.709c0.66-1.557,1.658-3.016,2.994-4.375
					c1.319-1.344,2.747-2.364,4.286-3.059c1.537-0.694,3.098-1.045,4.681-1.052c1.581-0.007,3.155,0.323,4.721,0.991
					c1.564,0.667,3.043,1.683,4.432,3.048c1.803,1.773,3.001,3.715,3.595,5.828c0.593,2.115,0.484,4.378-0.326,6.793l-5.995-2.421
					c0.533-1.337,0.685-2.524,0.457-3.558c-0.23-1.037-0.748-1.951-1.557-2.745c-0.672-0.66-1.406-1.134-2.204-1.421
					c-0.798-0.291-1.62-0.391-2.466-0.307c-0.848,0.082-1.704,0.343-2.571,0.783c-0.867,0.439-1.697,1.062-2.492,1.872
					c-0.722,0.734-1.294,1.507-1.717,2.32c-0.427,0.815-0.672,1.638-0.739,2.471c-0.071,0.833,0.055,1.653,0.373,2.461
					c0.319,0.806,0.85,1.578,1.599,2.312c0.442,0.435,0.919,0.808,1.43,1.112c0.509,0.306,1.037,0.509,1.583,0.612
					c0.546,0.099,1.097,0.081,1.657-0.062c0.559-0.139,1.126-0.427,1.697-0.853l-3.69-3.624L306.34,785.899z"/>
				<path fill="#FFFFFF" d="M310.991,808.996l15.381-18.703l4.862,3.999l-0.425,18.819l9.404-11.435l4.837,3.979l-15.38,18.701
					l-4.839-3.977l0.425-18.819l-9.404,11.435L310.991,808.996z"/>
				<path fill="#FFFFFF" d="M368.808,828.347l-6.27-4.081l-2.208,3.392l5.921,3.854l-2.908,4.467l-5.922-3.856l-2.278,3.5
					l6.272,4.083l-2.908,4.467l-11.547-7.517l13.212-20.292l11.546,7.517L368.808,828.347z"/>
				<path fill="#FFFFFF" d="M376.784,827.055l8.138,4.526c1.442,0.803,2.633,1.845,3.574,3.127c0.939,1.284,1.615,2.668,2.023,4.158
					c0.41,1.489,0.528,3.024,0.358,4.609c-0.17,1.583-0.645,3.076-1.425,4.481c-0.771,1.384-1.779,2.569-3.026,3.553
					c-1.245,0.985-2.611,1.702-4.098,2.151c-1.487,0.447-3.021,0.608-4.607,0.487c-1.586-0.123-3.108-0.591-4.568-1.401
					l-8.138-4.526L376.784,827.055z M373.106,846.62l1.265,0.702c0.953,0.529,1.887,0.854,2.802,0.969
					c0.914,0.118,1.774,0.057,2.581-0.18c0.806-0.239,1.546-0.642,2.218-1.211c0.672-0.57,1.247-1.285,1.725-2.147
					c0.469-0.84,0.764-1.704,0.89-2.589c0.124-0.887,0.076-1.734-0.148-2.545c-0.223-0.81-0.625-1.573-1.206-2.288
					c-0.583-0.716-1.341-1.334-2.278-1.853l-1.262-0.702L373.106,846.62z"/>
				<path fill="#FFFFFF" d="M405.379,842.139l-5.464,11.979c-0.292,0.643-0.566,1.312-0.825,2.006
					c-0.257,0.694-0.39,1.371-0.395,2.028s0.178,1.273,0.549,1.855c0.37,0.581,1.032,1.089,1.988,1.524
					c0.953,0.435,1.766,0.6,2.438,0.494c0.672-0.104,1.258-0.373,1.762-0.801c0.499-0.432,0.929-0.971,1.284-1.62
					c0.356-0.652,0.68-1.297,0.974-1.94l5.462-11.981l5.697,2.599l-5.823,12.769c-1.564,3.431-3.49,5.575-5.776,6.436
					c-2.287,0.864-5.059,0.554-8.311-0.931c-3.253-1.484-5.309-3.374-6.168-5.67c-0.859-2.298-0.504-5.161,1.058-8.589l5.823-12.769
					L405.379,842.139z"/>
				<path fill="#FFFFFF" d="M438.032,864.125c-0.753-2.172-2.132-3.627-4.141-4.368c-0.884-0.326-1.761-0.465-2.633-0.423
					c-0.872,0.044-1.682,0.244-2.428,0.596c-0.744,0.351-1.415,0.852-2.006,1.5c-0.595,0.648-1.053,1.415-1.379,2.298
					c-0.333,0.904-0.486,1.796-0.455,2.673c0.03,0.879,0.218,1.702,0.563,2.466c0.346,0.766,0.83,1.448,1.455,2.043
					c0.623,0.596,1.369,1.052,2.233,1.371c1.888,0.696,3.883,0.519,5.981-0.534l-2.577,6.991l-0.68-0.01
					c-1.022-0.012-1.952-0.087-2.791-0.227c-0.842-0.138-1.641-0.346-2.404-0.628c-1.568-0.576-2.96-1.428-4.177-2.549
					c-1.218-1.122-2.177-2.423-2.876-3.903c-0.699-1.477-1.105-3.078-1.225-4.798c-0.119-1.719,0.143-3.454,0.788-5.202
					c0.643-1.749,1.561-3.231,2.752-4.446c1.19-1.216,2.525-2.149,4.01-2.801c1.482-0.65,3.058-1.006,4.723-1.065
					c1.665-0.059,3.29,0.203,4.876,0.79c0.906,0.333,1.759,0.756,2.562,1.267c0.803,0.516,1.613,1.149,2.429,1.907L438.032,864.125z
					"/>
				<path fill="#FFFFFF" d="M454.9,881.598l-8.649-2.46l-2.54,3.651l-6.455-1.838l15.491-20.768l6.61,1.88l2.24,25.813l-6.457-1.836
					L454.9,881.598z M454.605,876.537l-0.514-8.525l-4.923,6.979L454.605,876.537z"/>
				<path fill="#FFFFFF" d="M478.506,872.134l-4,18.454l-6.151-1.332l3.999-18.454l-5.052-1.095l1.127-5.212l16.26,3.523
					l-1.129,5.212L478.506,872.134z"/>
				<path fill="#FFFFFF" d="M494.964,869.721l-4.01,23.881l-6.208-1.045l4.012-23.878L494.964,869.721z"/>
				<path fill="#FFFFFF" d="M498.912,882.799c0.181-1.789,0.68-3.422,1.497-4.899c0.818-1.479,1.87-2.734,3.159-3.763
					c1.289-1.032,2.779-1.789,4.476-2.275c1.695-0.482,3.522-0.627,5.484-0.428c1.937,0.198,3.693,0.704,5.267,1.521
					c1.574,0.817,2.893,1.858,3.96,3.13c1.065,1.27,1.85,2.71,2.352,4.321c0.506,1.611,0.665,3.311,0.486,5.101
					c-0.183,1.789-0.682,3.424-1.499,4.899c-0.818,1.479-1.877,2.732-3.175,3.762c-1.299,1.03-2.801,1.788-4.506,2.271
					c-1.705,0.482-3.528,0.625-5.467,0.43c-1.961-0.2-3.721-0.707-5.286-1.522c-1.564-0.813-2.871-1.857-3.928-3.125
					c-1.055-1.27-1.833-2.71-2.335-4.321C498.89,886.289,498.731,884.587,498.912,882.799z M505.463,883.463
					c-0.097,0.959-0.007,1.862,0.272,2.707c0.281,0.847,0.699,1.601,1.257,2.258c0.558,0.66,1.228,1.196,2.016,1.61
					c0.786,0.415,1.636,0.667,2.552,0.759s1.801,0.017,2.655-0.23c0.853-0.247,1.625-0.638,2.315-1.169
					c0.689-0.534,1.255-1.186,1.699-1.959c0.445-0.773,0.716-1.638,0.813-2.596c0.096-0.959,0.005-1.862-0.274-2.708
					c-0.281-0.845-0.706-1.598-1.272-2.26c-0.57-0.659-1.245-1.196-2.033-1.61c-0.786-0.413-1.636-0.667-2.552-0.759
					c-0.916-0.092-1.801-0.015-2.655,0.23c-0.855,0.249-1.62,0.638-2.298,1.171c-0.679,0.534-1.24,1.188-1.683,1.961
					C505.829,881.64,505.559,882.505,505.463,883.463z"/>
				<path fill="#FFFFFF" d="M531.394,897.839l0.358-24.21l6.295,0.092l11.403,14.975l0.22-14.803l6.262,0.092l-0.358,24.212
					l-6.26-0.092l-11.406-14.976l-0.22,14.805L531.394,897.839z"/>
				<path fill="#FFFFFF" d="M562.121,883.856c-0.025-0.512,0.044-1.003,0.213-1.475c0.168-0.469,0.413-0.884,0.739-1.243
					c0.324-0.361,0.709-0.648,1.159-0.865s0.932-0.338,1.445-0.366c0.512-0.025,1.005,0.045,1.473,0.213
					c0.47,0.17,0.884,0.415,1.247,0.739c0.358,0.324,0.647,0.712,0.864,1.159c0.217,0.45,0.339,0.932,0.365,1.445
					c0.027,0.514-0.044,1.005-0.212,1.475c-0.168,0.469-0.415,0.885-0.739,1.245c-0.324,0.36-0.711,0.649-1.161,0.864
					c-0.45,0.217-0.931,0.339-1.445,0.365c-0.512,0.029-1.005-0.044-1.473-0.212c-0.47-0.168-0.884-0.415-1.243-0.739
					c-0.361-0.323-0.648-0.711-0.865-1.161C562.271,884.851,562.15,884.37,562.121,883.856z M562.689,894.664
					c-0.029-0.514,0.044-1.005,0.21-1.473c0.17-0.47,0.417-0.885,0.739-1.247c0.324-0.358,0.712-0.647,1.163-0.864
					c0.447-0.217,0.929-0.339,1.442-0.365c0.514-0.027,1.005,0.044,1.475,0.212c0.47,0.168,0.885,0.415,1.245,0.739
					c0.36,0.323,0.649,0.711,0.865,1.161c0.215,0.45,0.338,0.931,0.365,1.445c0.027,0.512-0.044,1.005-0.212,1.473
					c-0.17,0.47-0.417,0.884-0.739,1.243c-0.324,0.361-0.712,0.648-1.161,0.865c-0.449,0.217-0.931,0.338-1.443,0.366
					c-0.514,0.025-1.005-0.044-1.475-0.213c-0.47-0.168-0.885-0.413-1.245-0.739c-0.359-0.324-0.648-0.709-0.864-1.159
					C562.835,895.659,562.714,895.176,562.689,894.664z"/>
				<path fill="#FFFFFF" d="M610.317,892.745l-7.757,1.119l-7.273-8.362l1.331,9.219l-6.232,0.899l-3.456-23.967l9.696-1.398
					c1.332-0.193,2.527-0.165,3.58,0.084c1.052,0.249,1.951,0.664,2.695,1.248c0.743,0.586,1.344,1.299,1.801,2.142
					c0.457,0.842,0.758,1.772,0.906,2.789c0.264,1.823,0.035,3.365-0.68,4.625c-0.716,1.26-1.902,2.216-3.562,2.866L610.317,892.745
					z M594.703,881.465l1.178-0.17c1.228-0.176,2.135-0.566,2.718-1.169c0.585-0.603,0.806-1.383,0.669-2.337
					c-0.138-0.951-0.571-1.636-1.302-2.05c-0.729-0.415-1.709-0.533-2.939-0.355l-1.176,0.17L594.703,881.465z"/>
				<path fill="#FFFFFF" d="M625.187,870.324l-7.32,1.549l0.837,3.96l6.914-1.463l1.104,5.215l-6.912,1.463l0.864,4.084l7.32-1.549
					l1.105,5.215l-13.479,2.851l-5.013-23.688l13.478-2.853L625.187,870.324z"/>
				<path fill="#FFFFFF" d="M633.944,862.609l9.674,12.565l1.596-15.788l6.578-1.882l-3.162,26.09l-4.817,1.376l-16.445-20.482
					L633.944,862.609z"/>
				<path fill="#FFFFFF" d="M657.222,868.481c-0.635-1.682-0.917-3.367-0.843-5.054c0.071-1.685,0.455-3.278,1.149-4.777
					c0.692-1.495,1.69-2.839,2.991-4.029c1.302-1.191,2.875-2.132,4.718-2.828c1.821-0.689,3.621-1.018,5.393-0.99
					s3.419,0.373,4.94,1.037c1.519,0.66,2.865,1.601,4.034,2.818c1.168,1.218,2.072,2.668,2.707,4.351
					c0.635,1.682,0.916,3.367,0.843,5.054c-0.072,1.687-0.46,3.28-1.164,4.782c-0.702,1.502-1.71,2.849-3.023,4.042
					c-1.312,1.193-2.878,2.134-4.701,2.823c-1.843,0.694-3.646,1.027-5.408,0.993c-1.764-0.032-3.401-0.381-4.911-1.045
					c-1.509-0.667-2.848-1.608-4.017-2.826C658.759,871.615,657.857,870.165,657.222,868.481z M663.381,866.156
					c0.339,0.902,0.825,1.668,1.452,2.302c0.628,0.632,1.337,1.121,2.13,1.46c0.793,0.343,1.633,0.524,2.522,0.543
					c0.889,0.018,1.764-0.134,2.624-0.459c0.862-0.326,1.62-0.79,2.273-1.389c0.654-0.603,1.171-1.295,1.549-2.08
					c0.38-0.783,0.596-1.62,0.649-2.51c0.054-0.889-0.089-1.784-0.43-2.687s-0.823-1.668-1.452-2.302
					c-0.63-0.632-1.344-1.116-2.146-1.455c-0.805-0.338-1.65-0.516-2.539-0.536c-0.887-0.018-1.762,0.134-2.623,0.46
					c-0.862,0.324-1.62,0.788-2.273,1.389c-0.655,0.602-1.166,1.294-1.534,2.072c-0.371,0.781-0.581,1.615-0.633,2.505
					C662.897,864.36,663.04,865.254,663.381,866.156z"/>
				<path fill="#FFFFFF" d="M688.349,842.798l7.957,17.124l6.843-3.179l2.246,4.834l-12.554,5.833l-10.202-21.962L688.349,842.798z"
					/>
				<path fill="#FFFFFF" d="M704.202,834.925l6.332,11.542c0.341,0.62,0.711,1.24,1.114,1.862c0.402,0.622,0.865,1.132,1.388,1.529
					s1.129,0.62,1.816,0.67c0.687,0.05,1.49-0.176,2.409-0.68c0.921-0.506,1.537-1.058,1.857-1.66c0.316-0.6,0.454-1.232,0.408-1.89
					c-0.044-0.66-0.22-1.327-0.529-2.001c-0.307-0.674-0.633-1.319-0.971-1.939l-6.334-11.544l5.489-3.011l6.752,12.303
					c1.813,3.303,2.379,6.131,1.702,8.478c-0.677,2.35-2.582,4.387-5.717,6.105c-3.133,1.72-5.879,2.236-8.232,1.549
					c-2.356-0.685-4.439-2.68-6.252-5.983l-6.751-12.303L704.202,834.925z"/>
				<path fill="#FFFFFF" d="M733.021,824.044l10.191,15.897l-5.299,3.399l-10.192-15.897l-4.353,2.789l-2.878-4.488l14.007-8.978
					l2.876,4.488L733.021,824.044z"/>
				<path fill="#FFFFFF" d="M742.976,810.728l14.002,19.755l-5.134,3.642l-14.002-19.756L742.976,810.728z"/>
				<path fill="#FFFFFF" d="M755,817.213c-1.132-1.396-1.93-2.907-2.394-4.531c-0.462-1.623-0.602-3.254-0.415-4.894
					c0.185-1.64,0.709-3.229,1.569-4.768c0.86-1.539,2.055-2.93,3.585-4.17c1.512-1.228,3.113-2.109,4.807-2.639
					c1.69-0.533,3.362-0.722,5.013-0.575c1.652,0.15,3.224,0.618,4.718,1.405c1.492,0.788,2.806,1.878,3.938,3.274
					c1.136,1.398,1.932,2.907,2.394,4.531c0.464,1.625,0.598,3.258,0.405,4.906c-0.195,1.645-0.727,3.241-1.594,4.787
					c-0.87,1.547-2.062,2.933-3.574,4.16c-1.531,1.242-3.135,2.125-4.819,2.65c-1.683,0.526-3.347,0.711-4.99,0.554
					s-3.211-0.627-4.704-1.413C757.447,819.701,756.133,818.609,755,817.213z M760.111,813.065c0.608,0.748,1.31,1.322,2.105,1.725
					c0.795,0.402,1.623,0.64,2.483,0.716c0.86,0.074,1.714-0.02,2.562-0.282c0.85-0.26,1.631-0.682,2.345-1.263
					c0.716-0.58,1.289-1.258,1.719-2.035c0.432-0.776,0.704-1.598,0.817-2.461c0.114-0.864,0.054-1.725-0.176-2.587
					c-0.23-0.86-0.647-1.665-1.255-2.414c-0.608-0.748-1.309-1.321-2.104-1.725c-0.796-0.402-1.628-0.635-2.495-0.706
					c-0.869-0.066-1.727,0.032-2.577,0.294c-0.848,0.26-1.63,0.682-2.345,1.262c-0.714,0.58-1.289,1.258-1.719,2.035
					c-0.43,0.778-0.699,1.596-0.803,2.451c-0.104,0.857-0.04,1.717,0.188,2.577C759.086,811.511,759.506,812.315,760.111,813.065z"
					/>
				<path fill="#FFFFFF" d="M788.696,804.973l-16.893-17.349l4.509-4.39l18.658,2.495l-10.329-10.607l4.488-4.37l16.893,17.349
					l-4.486,4.37l-18.658-2.497l10.328,10.607L788.696,804.973z"/>
				<path fill="#FFFFFF" d="M797.591,761.255l17.977,16.225l-4.219,4.671l-17.975-16.221L797.591,761.255z"/>
				<path fill="#FFFFFF" d="M821.781,761.885l6.379-7.891l4.145,3.35l-13.019,16.109l-7.48-20.785l-5.995,7.418l-4.146-3.35
					l12.596-15.586L821.781,761.885z"/>
				<path fill="#FFFFFF" d="M828.78,729.829l-4.321,6.109l3.303,2.337l4.081-5.766l4.352,3.078l-4.081,5.768l3.409,2.411l4.32-6.107
					l4.353,3.078l-7.957,11.248l-19.766-13.987l7.957-11.247L828.78,729.829z"/>
				<path fill="#FFFFFF" d="M827.813,721.786l4.839-7.959c0.855-1.408,1.944-2.557,3.261-3.448c1.317-0.891,2.729-1.51,4.232-1.863
					c1.504-0.349,3.044-0.408,4.619-0.178c1.576,0.232,3.051,0.764,4.424,1.599c1.353,0.822,2.497,1.875,3.432,3.159
					c0.936,1.284,1.601,2.675,1.989,4.178c0.39,1.502,0.494,3.041,0.309,4.622c-0.183,1.581-0.709,3.083-1.576,4.509l-4.839,7.959
					L827.813,721.786z M847.218,726.217l0.751-1.233c0.568-0.934,0.927-1.855,1.079-2.765c0.151-0.909,0.126-1.771-0.081-2.586
					c-0.207-0.815-0.581-1.569-1.124-2.261c-0.544-0.694-1.235-1.297-2.078-1.808c-0.823-0.502-1.673-0.832-2.554-0.99
					c-0.882-0.16-1.731-0.145-2.547,0.047c-0.818,0.193-1.598,0.565-2.334,1.119c-0.739,0.554-1.386,1.287-1.942,2.203l-0.749,1.235
					L847.218,726.217z"/>
			</g>
		</g>
		<g>
			<path fill="#FFFFFF" d="M321.574,741.281c-0.025-0.874-0.158-1.653-0.398-2.34c-0.244-0.685-0.57-1.27-0.985-1.752
				c-0.524-0.61-1.095-0.983-1.719-1.119c-0.62-0.138-1.163-0.005-1.628,0.395c-0.321,0.276-0.504,0.6-0.546,0.973
				c-0.044,0.373-0.007,0.781,0.111,1.223c0.116,0.445,0.286,0.912,0.514,1.403c0.225,0.491,0.44,0.985,0.642,1.478
				c0.813,1.984,1.095,3.701,0.854,5.156c-0.247,1.453-1.058,2.774-2.44,3.962c-0.931,0.801-1.91,1.368-2.932,1.704
				c-1.025,0.336-2.065,0.435-3.12,0.296c-1.057-0.139-2.11-0.519-3.159-1.139c-1.052-0.62-2.053-1.482-3.004-2.592
				c-1.974-2.295-3.123-5.01-3.443-8.143l5.544-1.248c-0.017,1.245,0.116,2.344,0.407,3.296c0.287,0.953,0.724,1.767,1.302,2.441
				c0.664,0.77,1.332,1.193,2.011,1.265c0.679,0.076,1.242-0.082,1.692-0.469c0.274-0.234,0.469-0.487,0.586-0.756
				c0.118-0.269,0.165-0.588,0.141-0.958c-0.027-0.37-0.121-0.798-0.289-1.284c-0.165-0.484-0.38-1.06-0.647-1.725
				c-0.333-0.778-0.633-1.557-0.904-2.344c-0.272-0.786-0.41-1.574-0.42-2.364c-0.008-0.79,0.161-1.576,0.506-2.361
				c0.343-0.786,0.966-1.564,1.865-2.339c0.899-0.773,1.841-1.324,2.828-1.655c0.986-0.333,1.971-0.454,2.955-0.365
				c0.985,0.089,1.956,0.398,2.915,0.931c0.959,0.529,1.853,1.275,2.681,2.238c0.775,0.901,1.458,1.947,2.051,3.142
				c0.593,1.191,1.035,2.446,1.327,3.758L321.574,741.281z"/>
			<path fill="#FFFFFF" d="M327.931,767.573l-6.314-6.268l-3.947,1.947l-4.711-4.679l23.345-10.576l4.825,4.79l-10.405,23.424
				l-4.711-4.677L327.931,767.573z M330.094,763.048l3.632-7.629l-7.601,3.69L330.094,763.048z"/>
			<path fill="#FFFFFF" d="M335.05,780.079l15.207-18.508l4.81,3.953l-0.41,18.616l9.296-11.315l4.788,3.933l-15.207,18.506
				l-4.787-3.93l0.41-18.617l-9.296,11.315L335.05,780.079z"/>
			<path fill="#FFFFFF" d="M378.039,789.644l-10.667,15.336l-5.111-3.557l10.665-15.334l-4.199-2.922l3.011-4.328l13.511,9.395
				l-3.012,4.33L378.039,789.644z"/>
			<path fill="#FFFFFF" d="M389.694,814.106l-7.641-4.553l-3.36,2.843l-5.702-3.399l20.096-15.909l5.84,3.479l-4.43,25.245
				l-5.704-3.399L389.694,814.106z M390.698,809.194l1.682-8.28l-6.485,5.418L390.698,809.194z"/>
			<path fill="#FFFFFF" d="M410.499,830.069l12.969-20.546l5.689,2.372l-0.486,13.634l9.311-9.955l5.689,2.372l-5.462,23.673
				l-5.717-2.384l3.397-13.52l-10.524,10.551l-2.287-0.954l0.348-14.792l-7.209,11.93L410.499,830.069z"/>
			<path fill="#FFFFFF" d="M446.915,831.926c0.507-1.705,1.294-3.199,2.359-4.486c1.065-1.284,2.32-2.31,3.763-3.075
				c1.442-0.766,3.033-1.227,4.77-1.386c1.737-0.156,3.538,0.04,5.407,0.596c1.848,0.548,3.459,1.364,4.84,2.448
				c1.379,1.082,2.47,2.34,3.271,3.772c0.801,1.43,1.299,2.975,1.492,4.634c0.192,1.658,0.034,3.342-0.472,5.047
				c-0.507,1.704-1.292,3.201-2.359,4.486s-2.325,2.308-3.779,3.07c-1.452,0.763-3.053,1.221-4.798,1.374
				c-1.747,0.156-3.545-0.04-5.393-0.588c-1.867-0.554-3.486-1.373-4.855-2.453c-1.369-1.08-2.45-2.335-3.239-3.762
				c-0.793-1.428-1.285-2.972-1.477-4.63C446.251,835.313,446.409,833.631,446.915,831.926z M453.158,833.78
				c-0.27,0.914-0.348,1.808-0.234,2.681c0.118,0.874,0.385,1.682,0.805,2.424c0.42,0.744,0.976,1.389,1.663,1.937
				c0.689,0.546,1.468,0.948,2.342,1.208c0.872,0.259,1.746,0.346,2.621,0.264s1.697-0.319,2.466-0.711
				c0.766-0.388,1.436-0.919,2.011-1.589c0.575-0.669,0.998-1.458,1.268-2.374c0.271-0.914,0.349-1.806,0.234-2.681
				c-0.118-0.874-0.39-1.683-0.82-2.429c-0.432-0.746-0.99-1.393-1.678-1.941c-0.687-0.546-1.47-0.948-2.342-1.208
				c-0.872-0.259-1.747-0.348-2.621-0.264c-0.875,0.081-1.692,0.319-2.45,0.714c-0.758,0.393-1.425,0.924-1.998,1.593
				C453.852,832.075,453.428,832.865,453.158,833.78z"/>
			<path fill="#FFFFFF" d="M475.908,852.576l4.452-23.537l6.117,1.158l8.579,16.526l2.722-14.39l6.087,1.151l-4.451,23.537
				l-6.087-1.151l-8.579-16.527l-2.722,14.392L475.908,852.576z"/>
			<path fill="#FFFFFF" d="M516.274,834.82l-2.745,23.794l-6.184-0.712l2.744-23.795L516.274,834.82z"/>
			<path fill="#FFFFFF" d="M539.356,844.464c-1.339-1.836-3.066-2.812-5.18-2.93c-0.931-0.054-1.803,0.067-2.614,0.361
				c-0.813,0.296-1.519,0.716-2.124,1.265c-0.603,0.549-1.092,1.218-1.463,2.003c-0.373,0.785-0.586,1.641-0.638,2.574
				c-0.054,0.951,0.062,1.836,0.343,2.66c0.284,0.822,0.699,1.546,1.247,2.169c0.549,0.625,1.205,1.129,1.969,1.51
				c0.763,0.383,1.599,0.6,2.508,0.65c1.988,0.113,3.822-0.633,5.502-2.236l-0.412,7.359l-0.647,0.185
				c-0.971,0.286-1.873,0.484-2.707,0.596c-0.833,0.114-1.653,0.146-2.456,0.101c-1.65-0.092-3.212-0.492-4.689-1.201
				c-1.477-0.709-2.759-1.662-3.847-2.858c-1.09-1.195-1.939-2.589-2.55-4.183c-0.61-1.593-0.865-3.31-0.761-5.15
				c0.102-1.84,0.541-3.505,1.314-5c0.773-1.495,1.767-2.766,2.982-3.81c1.215-1.047,2.601-1.838,4.158-2.376
				c1.557-0.539,3.17-0.761,4.842-0.667c0.953,0.054,1.882,0.207,2.791,0.459c0.907,0.252,1.857,0.618,2.849,1.099L539.356,844.464z
				"/>
			<path fill="#FFFFFF" d="M560.401,855.996l-8.893,0.234l-1.319,4.197l-6.638,0.175l8.488-24.185l6.796-0.178l9.743,23.706
				l-6.638,0.175L560.401,855.996z M558.626,851.309l-3.004-7.9l-2.586,8.044L558.626,851.309z"/>
			<path fill="#FFFFFF" d="M575.614,853.081l5.376-0.504l-4.835,11.015l-3.669,0.346L575.614,853.081z"/>
			<path fill="#FFFFFF" d="M615.229,837.026c-1.751-1.45-3.666-1.971-5.743-1.564c-0.916,0.178-1.731,0.509-2.446,0.995
				c-0.712,0.484-1.295,1.069-1.744,1.749c-0.45,0.682-0.759,1.448-0.927,2.302c-0.168,0.852-0.163,1.736,0.017,2.651
				c0.183,0.934,0.512,1.767,0.988,2.493c0.477,0.728,1.058,1.326,1.744,1.796c0.684,0.47,1.445,0.796,2.278,0.979
				c0.833,0.181,1.699,0.185,2.592,0.01c1.952-0.381,3.547-1.556,4.782-3.523l1.413,7.233l-0.581,0.341
				c-0.87,0.514-1.695,0.929-2.477,1.245c-0.778,0.312-1.564,0.548-2.354,0.702c-1.621,0.316-3.236,0.314-4.84-0.01
				c-1.606-0.323-3.085-0.929-4.435-1.82c-1.349-0.89-2.517-2.033-3.501-3.427c-0.985-1.393-1.653-2.996-2.006-4.802
				c-0.353-1.81-0.339-3.533,0.042-5.173c0.38-1.638,1.03-3.113,1.951-4.427c0.921-1.312,2.068-2.421,3.444-3.327
				c1.378-0.904,2.886-1.519,4.53-1.84c0.934-0.183,1.873-0.264,2.816-0.244c0.943,0.023,1.954,0.143,3.034,0.363L615.229,837.026z"
				/>
			<path fill="#FFFFFF" d="M638.485,842.976l-8.555,2.433l-0.237,4.393l-6.386,1.818l2.218-25.534l6.539-1.86l15.323,20.546
				l-6.388,1.815L638.485,842.976z M635.602,838.875l-4.871-6.905l-0.507,8.436L635.602,838.875z"/>
			<path fill="#FFFFFF" d="M650.117,818.203l6.448,17.532l7.006-2.577l1.82,4.948l-12.849,4.726l-8.268-22.478L650.117,818.203z"/>
			<path fill="#FFFFFF" d="M666.78,811.487l9.414,22.026l-5.726,2.448l-9.414-22.026L666.78,811.487z"/>
			<path fill="#FFFFFF" d="M687.301,807.549l-6.729,3.311l1.769,3.592l6.127-3.018l2.329,4.733l-6.127,3.016l4.152,8.438
				l-5.588,2.749l-10.575-21.492l12.313-6.06L687.301,807.549z"/>
			<path fill="#FFFFFF" d="M694.144,811.717c-0.912-1.527-1.48-3.117-1.705-4.773c-0.223-1.655-0.129-3.271,0.284-4.85
				c0.413-1.579,1.149-3.061,2.208-4.447c1.06-1.386,2.426-2.579,4.098-3.579c1.655-0.988,3.348-1.625,5.077-1.907
				c1.732-0.282,3.395-0.234,4.992,0.144c1.596,0.378,3.068,1.058,4.42,2.04c1.351,0.981,2.483,2.236,3.395,3.762
				c0.914,1.527,1.482,3.12,1.707,4.771c0.223,1.657,0.124,3.276-0.297,4.861c-0.422,1.584-1.168,3.073-2.234,4.464
				c-1.069,1.393-2.431,2.582-4.084,3.57c-1.672,1.001-3.37,1.638-5.092,1.915s-3.375,0.222-4.963-0.161
				c-1.586-0.385-3.056-1.067-4.407-2.046C696.19,814.5,695.058,813.245,694.144,811.717z M699.733,808.376
				c0.491,0.818,1.095,1.482,1.818,1.986c0.721,0.506,1.499,0.857,2.33,1.05c0.83,0.193,1.68,0.223,2.549,0.086
				c0.869-0.136,1.694-0.439,2.475-0.906c0.783-0.467,1.438-1.05,1.971-1.751c0.531-0.699,0.912-1.465,1.146-2.295
				c0.23-0.828,0.294-1.68,0.192-2.557c-0.104-0.875-0.402-1.722-0.89-2.54c-0.487-0.818-1.094-1.479-1.815-1.986
				c-0.724-0.506-1.504-0.852-2.344-1.043c-0.842-0.186-1.695-0.212-2.564-0.077c-0.869,0.138-1.694,0.44-2.477,0.907
				c-0.781,0.465-1.438,1.05-1.969,1.749c-0.531,0.702-0.909,1.463-1.131,2.287c-0.223,0.825-0.284,1.677-0.18,2.55
				C698.949,806.711,699.246,807.557,699.733,808.376z"/>
			<path fill="#FFFFFF" d="M744.933,792.601l-6.267,4.561l-10.225-3.95l5.423,7.446l-5.034,3.666l-14.099-19.363l7.833-5.704
				c1.079-0.786,2.135-1.312,3.17-1.583c1.037-0.269,2.014-0.319,2.935-0.151s1.776,0.514,2.566,1.038
				c0.788,0.528,1.482,1.201,2.08,2.023c1.074,1.473,1.588,2.925,1.542,4.358c-0.044,1.433-0.638,2.819-1.789,4.153L744.933,792.601
				z M726.066,789.95l0.951-0.692c0.993-0.722,1.606-1.482,1.836-2.278c0.232-0.8,0.069-1.584-0.494-2.354
				c-0.561-0.771-1.257-1.168-2.085-1.191c-0.83-0.025-1.742,0.324-2.735,1.047l-0.951,0.692L726.066,789.95z"/>
			<path fill="#FFFFFF" d="M749.345,789.12l-15.771-18.031l4.688-4.099l18.298,3.454l-9.642-11.025l4.664-4.078l15.768,18.029
				l-4.661,4.078l-18.3-3.451l9.642,11.023L749.345,789.12z"/>
			<path fill="#FFFFFF" d="M760.318,746.39l17.018,16.858l-4.382,4.422l-17.018-16.855L760.318,746.39z"/>
			<path fill="#FFFFFF" d="M789.211,743.967l-5.833,6.714l2.203,3.81l-4.355,5.01l-12.1-22.592l4.459-5.131l24.061,8.827
				l-4.355,5.013L789.211,743.967z M784.553,742.109l-7.851-3.12l4.185,7.342L784.553,742.109z"/>
		</g>
	</g>
	<g>
		<path fill="#FFFFFF" d="M202.853,587.62l60.309-10.054l3.352,20.102l-60.309,10.054l2.754,16.514l-17.026,2.838l-8.858-53.128
			l17.026-2.839L202.853,587.62z"/>
		<path fill="#FFFFFF" d="M212.475,536.631l1.568-29.385l-30.215-1.613l1.085-20.351l78.291,4.178l-1.087,20.352l-32.292-1.724
			l-1.568,29.385l32.292,1.723l-1.085,20.353l-78.291-4.178l1.085-20.352L212.475,536.631z"/>
		<path fill="#FFFFFF" d="M219.971,420.497l-6.746,23.269l12.584,3.648l6.368-21.972l16.579,4.806l-6.369,21.972l12.984,3.763
			l6.746-23.27l16.578,4.806l-12.419,42.844l-75.302-21.828l12.419-42.844L219.971,420.497z"/>
		<path fill="#FFFFFF" d="M269.029,330.228l-13.379,20.571l10.983,7.144l12.189-18.741l14.469,9.411l-12.189,18.741l25.801,16.782
			l-11.112,17.085l-65.724-42.748l24.493-37.656L269.029,330.228z"/>
		<path fill="#FFFFFF" d="M282.066,289.075l29.797,30.491c1.599,1.636,3.295,3.248,5.091,4.838c1.796,1.59,3.683,2.776,5.659,3.558
			c1.976,0.784,4.059,0.954,6.243,0.513c2.188-0.44,4.494-1.848,6.924-4.222c2.429-2.373,3.878-4.636,4.343-6.788
			c0.467-2.151,0.343-4.236-0.368-6.254c-0.712-2.017-1.843-3.943-3.39-5.775c-1.549-1.831-3.12-3.566-4.719-5.202l-29.798-30.491
			l14.503-14.172l31.759,32.498c8.528,8.726,12.757,17.047,12.691,24.962c-0.067,7.917-4.241,15.921-12.518,24.011
			c-8.281,8.092-16.389,12.092-24.33,12c-7.94-0.091-16.174-4.498-24.703-13.225L267.49,303.32L282.066,289.075z"/>
		<path fill="#FFFFFF" d="M371.332,239.9l32.565,51.747l-17.25,10.855l-32.565-51.747l-14.168,8.917l-9.194-14.608l45.586-28.689
			l9.194,14.609L371.332,239.9z"/>
		<path fill="#FFFFFF" d="M412.076,200.627l14.272,40.172c0.766,2.156,1.631,4.331,2.596,6.527c0.963,2.196,2.179,4.064,3.646,5.601
			c1.465,1.54,3.285,2.567,5.454,3.083c2.171,0.517,4.855,0.207,8.056-0.931c3.199-1.137,5.464-2.585,6.788-4.343
			c1.326-1.757,2.087-3.702,2.287-5.833c0.198-2.13-0.02-4.352-0.657-6.664c-0.638-2.311-1.339-4.545-2.105-6.7l-14.272-40.172
			l19.106-6.788l15.213,42.817c4.084,11.497,4.437,20.825,1.058,27.984s-10.522,12.676-21.43,16.552
			c-10.909,3.876-19.948,4.109-27.119,0.697c-7.171-3.411-12.799-10.864-16.883-22.361l-15.215-42.817L412.076,200.627z"/>
		<path fill="#FFFFFF" d="M557.338,251.293l-25.265,2.318l-22.119-28.252l2.755,30.028l-20.296,1.862l-7.162-78.074l31.581-2.897
			c4.35-0.399,8.204-0.108,11.566,0.87c3.362,0.98,6.196,2.477,8.505,4.493c2.308,2.017,4.13,4.425,5.467,7.226
			c1.334,2.801,2.156,5.858,2.46,9.172c0.544,5.937-0.447,10.884-2.972,14.839c-2.527,3.957-6.526,6.847-11.996,8.671
			L557.338,251.293z M508.748,212.209l3.831-0.352c4.004-0.367,6.999-1.478,8.989-3.331c1.986-1.852,2.839-4.332,2.554-7.439
			c-0.286-3.107-1.574-5.39-3.866-6.851c-2.292-1.46-5.44-2.007-9.444-1.64l-3.831,0.352L508.748,212.209z"/>
		<path fill="#FFFFFF" d="M640.484,254.044l-28.103-7.612l-8.078,11.925l-20.976-5.681l49.303-67.874l21.478,5.818l8.306,83.477
			l-20.976-5.681L640.484,254.044z M639.315,237.676l-2.008-27.584l-15.657,22.799L639.315,237.676z"/>
		<path fill="#FFFFFF" d="M732.64,254.585c-1.465-7.292-5.259-12.565-11.379-15.816c-2.695-1.431-5.45-2.265-8.266-2.506
			c-2.816-0.239-5.497,0.044-8.044,0.849c-2.547,0.806-4.914,2.119-7.097,3.942c-2.186,1.823-3.994,4.081-5.423,6.774
			c-1.463,2.755-2.339,5.548-2.624,8.378c-0.287,2.831-0.045,5.55,0.729,8.159c0.773,2.608,2.031,5.004,3.777,7.187
			c1.744,2.182,3.935,3.973,6.568,5.37c5.754,3.056,12.228,3.356,19.422,0.896l-11.315,21.305l-2.179-0.333
			c-3.275-0.485-6.228-1.13-8.859-1.939s-5.111-1.831-7.438-3.067c-4.775-2.536-8.873-5.871-12.29-10
			c-3.419-4.131-5.926-8.72-7.523-13.768c-1.598-5.047-2.211-10.358-1.841-15.931c0.37-5.573,1.969-11.022,4.798-16.348
			c2.828-5.327,6.415-9.68,10.763-13.063c4.346-3.382,9.042-5.795,14.086-7.236c5.044-1.442,10.25-1.895,15.617-1.361
			c5.368,0.536,10.469,2.087,15.306,4.656c2.755,1.463,5.309,3.193,7.665,5.189c2.354,1.997,4.676,4.387,6.964,7.172L732.64,254.585
			z"/>
		<path fill="#FFFFFF" d="M758.977,326.468l-21.618-19.503l-12.599,6.978l-16.134-14.558l74.677-38.219l16.522,14.906
			l-30.365,78.202l-16.136-14.558L758.977,326.468z M765.341,311.342l10.689-25.507l-24.277,13.248L765.341,311.342z"/>
		<path fill="#FFFFFF" d="M834.913,312.625l16.566,25.197c2.933,4.46,4.787,9.236,5.563,14.325
			c0.775,5.091,0.632,10.079-0.428,14.966c-1.06,4.886-3.023,9.473-5.884,13.763c-2.865,4.288-6.467,7.86-10.811,10.717
			c-4.288,2.818-8.957,4.707-14.009,5.664c-5.054,0.958-10.049,0.964-14.983,0.02c-4.936-0.945-9.587-2.781-13.952-5.511
			c-4.367-2.729-8.034-6.352-11.005-10.871l-16.568-25.196L834.913,312.625z M795.022,363.245l2.571,3.91
			c1.942,2.954,4.138,5.285,6.589,6.993c2.448,1.707,5.008,2.823,7.678,3.351c2.668,0.527,5.395,0.476,8.177-0.15
			c2.781-0.627,5.506-1.815,8.17-3.568c2.606-1.714,4.753-3.747,6.442-6.102c1.687-2.354,2.818-4.861,3.392-7.519
			c0.575-2.66,0.563-5.453-0.032-8.379c-0.598-2.926-1.848-5.838-3.752-8.733l-2.571-3.91L795.022,363.245z"/>
		<path fill="#FFFFFF" d="M879.75,434.374l-8.854-22.552L858.7,416.61l8.362,21.294l-16.068,6.308l-8.36-21.293l-12.582,4.94
			l8.854,22.552l-16.067,6.309l-16.302-41.523l72.979-28.653l16.302,41.523L879.75,434.374z"/>
		<path fill="#FFFFFF" d="M826.892,459.046l79.39,4.594l2.223,20.049l-39.817,20.209l43.264,10.899l2.221,20.049l-76.46,21.862
			l-2.233-20.151l44.109-11.688l-46.892-13.426l-0.894-8.061l42.918-22.436l-45.598-1.747L826.892,459.046z"/>
		<path fill="#FFFFFF" d="M870.054,574.697l44.296-22.737l-3.335,24.101l-23.214,11.484l19.236,17.255l-3.335,24.101l-36.441-34.017
			l-37.286-5.16l2.794-20.188L870.054,574.697z"/>
	</g>
</g>
<g>
</g>
<g>
</g>
<g>
</g>
<g>
</g>
<g>
</g>
<g>
</g>
<g>
</g>
<g>
</g>
<g>
</g>
<g>
</g>
<g>
</g>
<g>
</g>
<g>
</g>
<g>
</g>
<g>
</g>
</svg>
